<svg width="749" height="240" viewBox="0 0 749 240" fill="none" xmlns="http://www.w3.org/2000/svg">
<g clip-path="url(#clip0_2_3)">
<path d="M28.708 42.5V35H74.708L146.708 188L138.458 207H105.958L28.708 42.5ZM169.958 134.75H168.958L152.208 175.25L130.708 129.25L169.958 35H217.458V207H169.958V134.75ZM28.708 67.25L74.708 165.25V207H28.708V67.25ZM284.149 209C275.816 209 269.149 207.917 264.149 205.75C259.149 203.583 255.399 200.417 252.899 196.25C250.399 191.917 248.733 186.667 247.899 180.5C247.066 174.333 246.649 167.25 246.649 159.25V79.5H293.899V146.75C293.899 152.75 293.983 157.417 294.149 160.75C294.483 164.083 295.066 166.5 295.899 168C296.733 169.5 297.983 170.5 299.649 171C301.483 171.333 303.899 171.5 306.899 171.5C310.233 171.5 312.816 171.25 314.649 170.75C316.483 170.083 317.816 168.917 318.649 167.25C319.483 165.417 319.983 162.917 320.149 159.75C320.483 156.417 320.649 151.917 320.649 146.25V79.5H367.899V207H322.649L321.649 192.25H319.149C316.649 196.583 313.483 200 309.649 202.5C305.816 204.833 301.649 206.5 297.149 207.5C292.816 208.5 288.483 209 284.149 209ZM394.11 207V79.5H439.61L440.61 94.25H442.86C445.694 89.9167 448.944 86.5833 452.61 84.25C456.444 81.75 460.527 80 464.86 79C469.36 78 473.777 77.5 478.11 77.5C486.444 77.5 493.027 78.5833 497.86 80.75C502.86 82.9167 506.61 86.1667 509.11 90.5C511.777 94.6667 513.444 99.8333 514.11 106C514.944 112.167 515.36 119.25 515.36 127.25V207H468.11V139.75C468.11 133.75 467.944 129.083 467.61 125.75C467.444 122.417 466.944 120 466.11 118.5C465.277 117 463.944 116.083 462.11 115.75C460.444 115.25 458.194 115 455.36 115C452.194 115 449.61 115.333 447.61 116C445.777 116.5 444.444 117.667 443.61 119.5C442.777 121.167 442.194 123.667 441.86 127C441.527 130.167 441.36 134.583 441.36 140.25V207H394.11ZM577.821 209C570.821 209 564.738 208 559.571 206C554.571 204 550.405 200.583 547.071 195.75C543.905 190.917 541.571 184.25 540.071 175.75C538.571 167.25 537.821 156.583 537.821 143.75C537.821 130.75 538.571 120 540.071 111.5C541.571 103 543.988 96.25 547.321 91.25C550.655 86.25 554.821 82.75 559.821 80.75C564.988 78.75 571.071 77.75 578.071 77.75C582.738 77.75 587.071 78.1667 591.071 79C595.238 79.6667 599.071 81.0833 602.571 83.25C606.071 85.25 609.238 88.4167 612.071 92.75H614.321V21.25H661.571V207H616.071L615.071 192.25H612.571C610.071 196.917 606.988 200.5 603.321 203C599.655 205.333 595.655 206.917 591.321 207.75C586.988 208.583 582.488 209 577.821 209ZM599.821 171.75C603.988 171.75 606.988 171.25 608.821 170.25C610.821 169.25 612.155 167.25 612.821 164.25C613.488 161.583 613.905 158.583 614.071 155.25C614.238 151.75 614.321 147.75 614.321 143.25C614.321 138.75 614.238 134.917 614.071 131.75C614.071 128.417 613.738 125.583 613.071 123.25C612.405 119.75 611.071 117.5 609.071 116.5C607.071 115.5 603.988 115 599.821 115C596.155 115 593.321 115.25 591.321 115.75C589.488 116.083 588.071 117.167 587.071 119C586.238 120.833 585.655 123.667 585.321 127.5C585.155 131.333 585.071 136.583 585.071 143.25C585.071 149.917 585.155 155.25 585.321 159.25C585.655 163.083 586.238 165.917 587.071 167.75C588.071 169.417 589.488 170.5 591.321 171C593.321 171.5 596.155 171.75 599.821 171.75ZM687.567 56.5V21.25H735.817V56.5H687.567ZM687.567 207V79.5H735.567V207H687.567Z" fill="#181818"/>
</g>
<defs>
<clipPath id="clip0_2_3">
<rect width="749" height="240" fill="white"/>
</clipPath>
</defs>
</svg>
