<svg width="169" height="159" viewBox="0 0 169 159" fill="none" xmlns="http://www.w3.org/2000/svg">
<path d="M165.8 152.6C165.6 152.1 159.8 141.4 147 131.1C135.2 121.6 115 110.7 85.3 112.6C84.5 112.7 83.7 112.7 82.9 112.8C54.9 115.2 32.4 105.7 26.9 89.1C22.5 75.9 25.5 67.6 29.2 57C31 52 33 46.3 34.3 39.6C37 25.8 32.1 17.1 25.6 12.9C26 12.7 26.4 12.4 26.7 12.2C34.6 7.90003 43.7 8 53.8 12.3C56.9 13.6 60.7 16.5 65.2 20.8C66.9 22.4 70 26.2 74 31.4C68.3 30.7 61.1 31.1 53.8 34.8C47.4 38.1 42.4 44.1 40.4 50.9C38.9 56.1 38.4 64.6 44.5 74.9C56.6 95.4 95.7 104.5 129 104.5H136.7L132.3 98.2C130.2 95.2 80.8 24.6 70.8 14.9C65.6 9.80001 61.1 6.5 57.1 4.8C44.9 -0.499999 33.1 -0.399986 23 5.00001C14.5 9.60001 3.70001 21.6 3.20001 22.1L0.600006 25L23.9 47.6C23.2 49.8 22.4 52 21.7 54.1C17.8 65.2 14.2 75.6 19.4 91.4C24.1 105.6 38.2 115.6 57.2 119.3C30.5 130.3 16 151.3 15.2 152.5L21.8 157C22 156.7 44.4 124.4 83.8 121C93.8 136 115.5 158.4 156 158.4C158.1 158.4 160.3 158.3 162.5 158.2L168.7 157.8L165.8 152.6ZM81.6 41.5C93.8 57.9 109.8 80.2 121.2 96.5C87.8 95.1 59.7 85 51.4 71C47.6 64.6 46.5 58.7 48.1 53.2C49.7 47.6 54 43.7 57.5 42C61.6 39.9 65.8 39.2 69.5 39.2C76.3 39.2 81.6 41.5 81.6 41.5ZM11.8 24.8C13.5 23 16 20.6 18.6 18.3C18.7 18.3 18.9 18.4 19 18.4C21.5 19.3 29.3 23.4 26.5 38C26.4 38.3 26.4 38.6 26.3 38.9L11.8 24.8ZM93 120.4C111.6 120.5 128 126.2 141.7 137.1C147.8 141.9 152.1 146.9 154.9 150.6C121.9 150.2 102.9 133.5 93 120.4Z" fill="#CCE8F5"/>
</svg>
